<svg xmlns="http://www.w3.org/2000/svg" xmlns:xlink="http://www.w3.org/1999/xlink" width="500" zoomAndPan="magnify" viewBox="0 0 375 374.999991" height="500" preserveAspectRatio="xMidYMid meet" version="1.0"><defs><clipPath id="c2a4ab6aee"><path d="M 25.226562 213 L 349.976562 213 L 349.976562 375 L 25.226562 375 Z M 25.226562 213 " clip-rule="nonzero"/></clipPath><clipPath id="84fa44a73b"><path d="M 25.226562 276 L 349.976562 276 L 349.976562 375 L 25.226562 375 Z M 25.226562 276 " clip-rule="nonzero"/></clipPath></defs><g clip-path="url(#c2a4ab6aee)"><path fill="#2c5189" d="M 335.335938 249.3125 C 331.863281 240.277344 321.421875 235.40625 321.421875 235.40625 L 232.347656 213.847656 L 187.601562 229.003906 L 142.859375 213.847656 L 53.78125 235.40625 C 53.78125 235.40625 43.34375 240.277344 39.867188 249.3125 C 36.375 258.367188 25.261719 374.835938 25.261719 374.835938 L 349.960938 374.835938 C 349.960938 374.835938 338.828125 258.367188 335.335938 249.3125 " fill-opacity="1" fill-rule="nonzero"/></g><g clip-path="url(#84fa44a73b)"><path fill="#234774" d="M 349.960938 374.835938 C 349.960938 374.835938 344.066406 313.300781 339.519531 276.222656 C 254.875 357.289062 46.816406 358.460938 26.808594 358.902344 C 25.851562 368.597656 25.261719 374.835938 25.261719 374.835938 L 349.960938 374.835938 " fill-opacity="1" fill-rule="nonzero"/></g><path fill="#d1e4f1" d="M 124.414062 218.324219 L 187.601562 343.203125 L 244.746094 216.84375 L 188.03125 229.152344 L 124.414062 218.324219 " fill-opacity="1" fill-rule="nonzero"/><path fill="#172f4c" d="M 202.523438 229.152344 L 188.558594 228.808594 L 174.59375 229.152344 L 173.355469 249.347656 L 182.761719 258.710938 L 194.355469 258.710938 L 203.757812 249.347656 L 202.523438 229.152344 " fill-opacity="1" fill-rule="nonzero"/><path fill="#ee9255" d="M 188.03125 224.972656 L 227.652344 213.15625 C 221.425781 202.378906 217.277344 151.605469 217.277344 151.605469 L 188.03125 162.386719 L 158.800781 151.605469 C 158.800781 151.605469 154.648438 202.378906 148.425781 213.15625 L 188.03125 224.972656 " fill-opacity="1" fill-rule="nonzero"/><path fill="#f9b57c" d="M 188.078125 24.226562 C 135.199219 23.980469 124.84375 69.894531 128.316406 103.269531 C 128.960938 109.507812 132.597656 136.53125 137.984375 159.605469 C 140.46875 170.320312 155.933594 183.515625 170.691406 192.289062 C 179.960938 197.800781 188.078125 199.367188 188.078125 199.367188 C 188.097656 199.367188 196.214844 197.800781 205.488281 192.289062 C 220.226562 183.515625 235.6875 170.320312 238.191406 159.605469 C 243.578125 136.53125 247.214844 109.507812 247.859375 103.269531 C 251.332031 69.894531 237.5 27.007812 188.078125 24.226562 " fill-opacity="1" fill-rule="nonzero"/><path fill="#f9b57c" d="M 131.726562 101.199219 C 131.726562 101.199219 116.410156 86.582031 112.246094 100.488281 C 108.800781 111.960938 122.949219 145.105469 132.910156 134.277344 L 131.726562 101.199219 " fill-opacity="1" fill-rule="nonzero"/><path fill="#f9b57c" d="M 244.070312 101.199219 C 244.070312 101.199219 259.371094 86.582031 263.554688 100.488281 C 266.996094 111.960938 252.832031 145.105469 242.886719 134.277344 L 244.070312 101.199219 " fill-opacity="1" fill-rule="nonzero"/><path fill="#ffffff" d="M 188.03125 224.972656 C 188.03125 224.972656 154.550781 209.324219 151.140625 205.667969 C 151.140625 205.667969 145.296875 203.777344 141.804688 207.59375 C 138.328125 211.414062 124.414062 218.324219 124.414062 218.324219 L 155.636719 280.023438 C 155.636719 280.023438 172.089844 249.675781 188.03125 231.589844 L 188.03125 224.972656 " fill-opacity="1" fill-rule="nonzero"/><path fill="#ffffff" d="M 188.03125 224.972656 C 188.03125 224.972656 221.527344 209.324219 224.933594 205.667969 C 224.933594 205.667969 230.78125 203.777344 234.257812 207.59375 C 237.746094 211.414062 244.746094 216.84375 244.746094 216.84375 L 217.3125 277.523438 C 217.3125 277.523438 203.988281 249.675781 188.03125 231.589844 L 188.03125 224.972656 " fill-opacity="1" fill-rule="nonzero"/><path fill="#172f4c" d="M 182.761719 258.710938 L 173.355469 315.0625 L 187.601562 343.203125 L 201.5 312.476562 L 194.355469 258.710938 L 182.761719 258.710938 " fill-opacity="1" fill-rule="nonzero"/><path fill="#335c92" d="M 112.457031 221.203125 L 100.171875 263.929688 L 121.054688 272.273438 L 100.171875 288.5 L 171.152344 374.835938 L 187.175781 374.835938 L 187.601562 343.203125 L 124.414062 218.324219 L 112.457031 221.203125 " fill-opacity="1" fill-rule="nonzero"/><path fill="#335c92" d="M 256.6875 219.738281 L 275.984375 263.929688 L 255.105469 272.273438 L 275.984375 288.5 L 203.445312 374.835938 L 187.175781 374.835938 L 187.601562 343.203125 L 244.746094 216.84375 L 256.6875 219.738281 " fill-opacity="1" fill-rule="nonzero"/><path fill="#462516" d="M 124.414062 96.03125 L 129.386719 111.796875 C 129.386719 111.796875 135.429688 96.558594 139.152344 90.074219 C 142.859375 83.570312 144.703125 66.882812 144.703125 62.242188 C 144.703125 57.617188 148.425781 51.117188 151.667969 49.734375 C 154.914062 48.335938 184.605469 59 194.355469 56.679688 C 204.085938 54.359375 229.613281 52.5 230.996094 52.976562 C 232.394531 53.4375 233.777344 59.921875 234.71875 64.101562 C 235.640625 68.265625 230.996094 84.492188 234.71875 90.074219 C 238.421875 95.617188 246.261719 115.464844 246.261719 115.464844 C 246.261719 115.464844 258.890625 59.921875 251.285156 39.53125 C 243.660156 19.125 210.128906 3.375 190.847656 1.753906 C 171.050781 0.101562 134.277344 15.882812 124.414062 41.375 C 114.550781 66.882812 124.414062 96.03125 124.414062 96.03125 " fill-opacity="1" fill-rule="nonzero"/></svg>