<svg xmlns="http://www.w3.org/2000/svg" xmlns:xlink="http://www.w3.org/1999/xlink" width="500" zoomAndPan="magnify" viewBox="0 0 375 374.999991" height="500" preserveAspectRatio="xMidYMid meet" version="1.0"><defs><clipPath id="51f6663093"><path d="M 134 40.3125 L 264 40.3125 L 264 124 L 134 124 Z M 134 40.3125 " clip-rule="nonzero"/></clipPath><clipPath id="3de9eb6d3d"><path d="M 0 81 L 38 81 L 38 335.0625 L 0 335.0625 Z M 0 81 " clip-rule="nonzero"/></clipPath><clipPath id="6692fdc1b0"><path d="M 29 81 L 375 81 L 375 335.0625 L 29 335.0625 Z M 29 81 " clip-rule="nonzero"/></clipPath><clipPath id="ecf59bfb5f"><path d="M 29 164 L 375 164 L 375 335.0625 L 29 335.0625 Z M 29 164 " clip-rule="nonzero"/></clipPath></defs><g clip-path="url(#51f6663093)"><path fill="#1e1413" d="M 152.75 104.570312 L 244.339844 104.570312 L 244.339844 59.03125 L 152.75 59.03125 Z M 251.816406 123.289062 L 145.273438 123.289062 C 139.089844 123.289062 134.058594 118.25 134.058594 112.058594 L 134.058594 51.542969 C 134.058594 45.351562 139.089844 40.3125 145.273438 40.3125 L 251.816406 40.3125 C 258.003906 40.3125 263.035156 45.351562 263.035156 51.542969 L 263.035156 112.058594 C 263.035156 118.25 258.003906 123.289062 251.816406 123.289062 " fill-opacity="1" fill-rule="nonzero"/></g><g clip-path="url(#3de9eb6d3d)"><path fill="#533833" d="M 37.410156 81.800781 L 0.0703125 81.800781 L 0.0703125 335.058594 L 37.410156 335.058594 L 37.410156 81.800781 " fill-opacity="1" fill-rule="nonzero"/></g><g clip-path="url(#6692fdc1b0)"><path fill="#745754" d="M 374.914062 335.0625 L 29.023438 335.0625 L 29.023438 81.800781 L 374.914062 81.800781 L 374.914062 335.0625 " fill-opacity="1" fill-rule="nonzero"/></g><g clip-path="url(#ecf59bfb5f)"><path fill="#6a4d4c" d="M 374.914062 335.0625 L 374.914062 173.34375 L 208.925781 206.800781 L 29.023438 164.191406 L 29.023438 335.0625 L 374.914062 335.0625 " fill-opacity="1" fill-rule="nonzero"/></g><path fill="#503938" d="M 374.914062 192.414062 L 374.914062 173.34375 L 208.925781 206.800781 L 29.023438 164.191406 L 29.023438 184.785156 L 205.019531 226.742188 L 374.914062 192.414062 " fill-opacity="1" fill-rule="nonzero"/><path fill="#937371" d="M 374.914062 88.667969 L 374.914062 81.800781 L 29.023438 81.800781 L 29.023438 88.667969 L 374.914062 88.667969 " fill-opacity="1" fill-rule="nonzero"/><path fill="#c65d1d" d="M 224.066406 243.523438 C 224.066406 244.789062 223.042969 245.8125 221.78125 245.8125 L 195.878906 245.8125 C 194.617188 245.8125 193.59375 244.789062 193.59375 243.523438 L 193.59375 192.414062 C 193.59375 191.148438 194.617188 190.125 195.878906 190.125 L 221.78125 190.125 C 223.042969 190.125 224.066406 191.148438 224.066406 192.414062 L 224.066406 243.523438 " fill-opacity="1" fill-rule="nonzero"/><path fill="#ee9d2b" d="M 227.875 243.523438 C 227.875 244.789062 226.855469 245.8125 225.589844 245.8125 L 199.6875 245.8125 C 198.425781 245.8125 197.402344 244.789062 197.402344 243.523438 L 197.402344 192.414062 C 197.402344 191.148438 198.425781 190.125 199.6875 190.125 L 225.589844 190.125 C 226.855469 190.125 227.875 191.148438 227.875 192.414062 L 227.875 243.523438 " fill-opacity="1" fill-rule="nonzero"/></svg>